<svg width="206" height="173" viewBox="0 0 206 173" fill="none" xmlns="http://www.w3.org/2000/svg">
<path d="M24.2989 125.472C24.2989 130.231 22.9585 133.547 20.2776 135.418C17.8048 137.151 14.4075 138.018 10.0858 138.018H0.275391V137.359H2.56334V114.417H0.275391V113.758H10.9872C15.4244 113.758 18.7523 114.671 20.9709 116.496C23.1896 118.298 24.2989 121.29 24.2989 125.472ZM9.3232 137.359H10.6405C12.9747 137.359 14.6386 136.539 15.6324 134.899C16.6493 133.235 17.1577 130.463 17.1577 126.581V124.571C17.1577 119.373 16.1639 116.242 14.1764 115.179C13.2289 114.671 11.8885 114.417 10.1552 114.417H9.3232V137.359Z" fill="#0C4C8A"/>
<path d="M40.7013 137.359L38.1707 129.873H31.3068L28.6375 137.359H31.2375V138.017H25.9336V137.359H27.5629L36.4027 113.55H39.2453L47.9811 137.359H49.5757V138.017H38.24V137.359H40.7013ZM34.8774 120.031L31.6188 129.111H37.8933L34.8774 120.031Z" fill="#0C4C8A"/>
<path d="M50.6553 113.758H61.2284V114.417H59.3218V137.359H61.2284V138.018H50.6553V137.359H52.5619V114.417H50.6553V113.758Z" fill="#0C4C8A"/>
<path d="M62.7852 113.758H75.2649V114.521H71.5903V137.255H72.8383C74.8027 137.255 76.3627 136.654 77.5182 135.453C78.6968 134.252 79.887 132.403 81.0888 129.908H81.8168L81.1581 138.018H62.7852V137.255H64.8304V114.521H62.7852V113.758Z" fill="#0C4C8A"/>
<path d="M96.4968 125.16L101.419 114.313H97.9181V113.758H104.747V114.313H102.459L97.2247 125.888V137.359H99.3394V138.018H88.3503V137.359H90.4649V126.546L84.5717 114.313H82.9424V113.758H94.0355V114.313H91.7822L96.4968 125.16Z" fill="#0C4C8A"/>
<path d="M130.185 113.758H139.441V114.417H137.534V137.359H139.441V138.018H128.868V137.359H130.774V115.699H130.636L125.436 138.018H121.102L115.001 115.595H114.863V137.359H116.769V138.018H112.055V137.359H113.961V114.417H112.055V113.758H121.414L126.025 131.606L130.185 113.758Z" fill="#0C4C8A"/>
<path d="M141.002 113.758H159.028L159.375 120.62H158.751C157.78 118.287 156.763 116.692 155.7 115.838C154.637 114.96 153.077 114.521 151.02 114.521H149.807V125.229H150.986C152.072 125.229 152.985 124.825 153.724 124.016C154.464 123.185 154.984 122.076 155.284 120.689H155.804V130.948H155.215C154.799 129.215 154.233 127.979 153.516 127.239C152.823 126.5 151.864 126.13 150.639 126.13H149.807V137.255H151.124C153.251 137.255 155.053 136.62 156.532 135.349C158.034 134.078 159.063 132.45 159.618 130.463H160.311L160.034 138.018H141.002V137.255H143.047V114.521H141.002V113.758Z" fill="#0C4C8A"/>
<path d="M176.878 137.359L174.347 129.873H167.484L164.814 137.359H167.414V138.017H162.11V137.359H163.74L172.579 113.55H175.422L184.158 137.359H185.753V138.017H174.417V137.359H176.878ZM171.054 120.031L167.796 129.111H174.07L171.054 120.031Z" fill="#0C4C8A"/>
<path d="M186.694 113.758H199.174V114.521H195.499V137.255H196.747C198.712 137.255 200.272 136.654 201.427 135.453C202.606 134.252 203.796 132.403 204.998 129.908H205.726L205.067 138.018H186.694V137.255H188.74V114.521H186.694V113.758Z" fill="#0C4C8A"/>
<path d="M52.6971 169.439L51.2347 165.651C51.1914 165.538 51.1459 165.408 51.0983 165.261C51.0506 165.109 51.0051 164.949 50.9618 164.78C50.8708 165.131 50.7776 165.423 50.6823 165.657L49.2199 169.439H52.6971ZM55.323 172.896H54.348C54.2354 172.896 54.1444 172.868 54.075 172.811C54.0057 172.755 53.9537 172.684 53.9191 172.597L53.0481 170.349H48.8689L47.998 172.597C47.972 172.675 47.9222 172.744 47.8485 172.805C47.7748 172.866 47.6838 172.896 47.5755 172.896H46.6006L50.3248 163.585H51.5987L55.323 172.896Z" fill="#0C4C8A"/>
<path d="M70.1879 163.585V172.896H69.0829V166.054C69.0829 165.963 69.0851 165.865 69.0894 165.761C69.0981 165.657 69.1068 165.551 69.1154 165.443L65.9177 171.265C65.818 171.46 65.6664 171.557 65.4627 171.557H65.2807C65.0771 171.557 64.9254 171.46 64.8258 171.265L61.563 165.417C61.589 165.647 61.602 165.859 61.602 166.054V172.896H60.4971V163.585H61.4265C61.5392 163.585 61.6258 163.595 61.6865 163.617C61.7471 163.639 61.8056 163.699 61.862 163.799L65.0792 169.53C65.1312 169.634 65.1811 169.742 65.2287 169.855C65.2807 169.968 65.3284 170.082 65.3717 170.199C65.415 170.082 65.4605 169.968 65.5082 169.855C65.5559 169.738 65.6079 169.627 65.6642 169.524L68.823 163.799C68.875 163.699 68.9313 163.639 68.992 163.617C69.0569 163.595 69.1458 163.585 69.2584 163.585H70.1879Z" fill="#0C4C8A"/>
<path d="M81.1271 165.04C81.0881 165.105 81.0448 165.155 80.9972 165.19C80.9538 165.22 80.8997 165.235 80.8347 165.235C80.761 165.235 80.6743 165.198 80.5747 165.125C80.475 165.051 80.3494 164.971 80.1977 164.884C80.0504 164.793 79.8706 164.711 79.6582 164.637C79.4503 164.564 79.1968 164.527 78.8978 164.527C78.6162 164.527 78.367 164.566 78.1504 164.644C77.938 164.717 77.7582 164.819 77.6109 164.949C77.4679 165.079 77.3596 165.233 77.2859 165.411C77.2123 165.584 77.1754 165.772 77.1754 165.976C77.1754 166.236 77.2383 166.452 77.3639 166.626C77.4939 166.795 77.6629 166.94 77.8709 167.061C78.0832 167.182 78.3215 167.288 78.5858 167.379C78.8545 167.466 79.1275 167.557 79.4048 167.652C79.6864 167.748 79.9594 167.856 80.2237 167.977C80.4924 168.094 80.7307 168.244 80.9387 168.426C81.151 168.607 81.32 168.831 81.4456 169.095C81.5756 169.359 81.6406 169.684 81.6406 170.069C81.6406 170.477 81.5713 170.86 81.4326 171.22C81.294 171.575 81.0903 171.884 80.8217 172.149C80.5573 172.413 80.2302 172.621 79.8402 172.773C79.4546 172.924 79.0148 173 78.5208 173C77.9142 173 77.3639 172.892 76.8699 172.675C76.376 172.454 75.9535 172.157 75.6025 171.785L75.9665 171.187C76.0012 171.139 76.0423 171.1 76.09 171.07C76.142 171.035 76.1983 171.018 76.259 171.018C76.3153 171.018 76.3782 171.042 76.4475 171.09C76.5211 171.133 76.6035 171.189 76.6945 171.259C76.7855 171.328 76.8894 171.404 77.0064 171.486C77.1234 171.568 77.2556 171.644 77.4029 171.713C77.5546 171.783 77.7257 171.841 77.9164 171.889C78.107 171.932 78.3215 171.954 78.5598 171.954C78.8588 171.954 79.1253 171.913 79.3593 171.83C79.5933 171.748 79.7904 171.633 79.9507 171.486C80.1154 171.334 80.241 171.155 80.3277 170.947C80.4144 170.739 80.4577 170.507 80.4577 170.251C80.4577 169.97 80.3927 169.74 80.2627 169.563C80.137 169.381 79.9702 169.229 79.7622 169.108C79.5543 168.986 79.3159 168.885 79.0473 168.802C78.7786 168.716 78.5057 168.629 78.2284 168.542C77.951 168.451 77.6781 168.348 77.4094 168.231C77.1408 168.114 76.9024 167.962 76.6945 167.776C76.4865 167.589 76.3175 167.358 76.1875 167.08C76.0618 166.799 75.999 166.452 75.999 166.041C75.999 165.712 76.0618 165.393 76.1875 165.086C76.3175 164.778 76.5038 164.505 76.7465 164.267C76.9934 164.029 77.2946 163.838 77.6499 163.695C78.0095 163.552 78.4212 163.481 78.8848 163.481C79.4048 163.481 79.8771 163.563 80.3017 163.728C80.7307 163.892 81.1076 164.13 81.4326 164.442L81.1271 165.04Z" fill="#0C4C8A"/>
<path d="M93.4497 164.644H90.4339V172.896H89.1795V164.644H86.1572V163.585H93.4497V164.644Z" fill="#0C4C8A"/>
<path d="M104.425 171.869L104.419 172.896H98.6797V163.585H104.419V164.611H99.9406V167.704H103.567V168.692H99.9406V171.869H104.425Z" fill="#0C4C8A"/>
<path d="M112.735 168.094C113.099 168.094 113.419 168.051 113.697 167.964C113.978 167.873 114.212 167.747 114.398 167.587C114.589 167.423 114.732 167.228 114.827 167.002C114.923 166.777 114.97 166.528 114.97 166.255C114.97 165.701 114.788 165.283 114.424 165.001C114.061 164.72 113.515 164.579 112.787 164.579H111.409V168.094H112.735ZM117.037 172.896H115.919C115.69 172.896 115.521 172.807 115.412 172.629L112.995 169.303C112.921 169.199 112.841 169.125 112.754 169.082C112.672 169.034 112.542 169.01 112.364 169.01H111.409V172.896H110.154V163.585H112.787C113.376 163.585 113.885 163.645 114.314 163.767C114.743 163.883 115.096 164.055 115.373 164.28C115.655 164.505 115.863 164.778 115.997 165.099C116.132 165.415 116.199 165.77 116.199 166.164C116.199 166.493 116.147 166.801 116.043 167.087C115.939 167.373 115.787 167.631 115.588 167.86C115.393 168.085 115.152 168.278 114.866 168.438C114.585 168.599 114.264 168.72 113.905 168.802C114.065 168.893 114.204 169.025 114.321 169.199L117.037 172.896Z" fill="#0C4C8A"/>
<path d="M130.497 168.243C130.497 168.941 130.387 169.576 130.166 170.147C129.945 170.719 129.633 171.209 129.23 171.616C128.827 172.023 128.342 172.339 127.774 172.564C127.211 172.785 126.587 172.896 125.902 172.896H122.425V163.585H125.902C126.587 163.585 127.211 163.697 127.774 163.922C128.342 164.143 128.827 164.46 129.23 164.871C129.633 165.278 129.945 165.768 130.166 166.34C130.387 166.911 130.497 167.546 130.497 168.243ZM129.204 168.243C129.204 167.672 129.126 167.161 128.97 166.71C128.814 166.26 128.593 165.878 128.307 165.566C128.021 165.255 127.674 165.016 127.267 164.852C126.86 164.687 126.405 164.605 125.902 164.605H123.686V171.876H125.902C126.405 171.876 126.86 171.793 127.267 171.629C127.674 171.464 128.021 171.228 128.307 170.921C128.593 170.609 128.814 170.227 128.97 169.777C129.126 169.326 129.204 168.815 129.204 168.243Z" fill="#0C4C8A"/>
<path d="M141.068 169.439L139.606 165.651C139.563 165.538 139.517 165.408 139.469 165.261C139.422 165.109 139.376 164.949 139.333 164.78C139.242 165.131 139.149 165.423 139.053 165.657L137.591 169.439H141.068ZM143.694 172.896H142.719C142.606 172.896 142.516 172.868 142.446 172.811C142.377 172.755 142.325 172.684 142.29 172.597L141.419 170.349H137.24L136.369 172.597C136.343 172.675 136.293 172.744 136.22 172.805C136.146 172.866 136.055 172.896 135.947 172.896H134.972L138.696 163.585H139.97L143.694 172.896Z" fill="#0C4C8A"/>
<path d="M158.505 163.585V172.896H157.4V166.054C157.4 165.963 157.402 165.865 157.407 165.761C157.415 165.657 157.424 165.551 157.433 165.443L154.235 171.265C154.135 171.46 153.984 171.557 153.78 171.557H153.598C153.394 171.557 153.243 171.46 153.143 171.265L149.88 165.417C149.906 165.647 149.919 165.859 149.919 166.054V172.896H148.814V163.585H149.744C149.857 163.585 149.943 163.595 150.004 163.617C150.065 163.639 150.123 163.699 150.179 163.799L153.397 169.53C153.449 169.634 153.498 169.742 153.546 169.855C153.598 169.968 153.646 170.082 153.689 170.199C153.732 170.082 153.778 169.968 153.826 169.855C153.873 169.738 153.925 169.627 153.982 169.524L157.14 163.799C157.192 163.699 157.249 163.639 157.309 163.617C157.374 163.595 157.463 163.585 157.576 163.585H158.505Z" fill="#0C4C8A"/>
<path d="M83.0522 23.9502C83.5198 23.9364 83.9637 23.741 84.2896 23.4053C84.6154 23.0697 84.7976 22.6203 84.7974 22.1526C84.8422 21.8944 84.8299 21.6295 84.7616 21.3765C84.6932 21.1235 84.5703 20.8886 84.4015 20.688C84.2327 20.4875 84.0221 20.3263 83.7845 20.2157C83.5468 20.1052 83.2879 20.0479 83.0257 20.0479C82.7636 20.0479 82.5046 20.1052 82.267 20.2157C82.0293 20.3263 81.8187 20.4875 81.65 20.688C81.4812 20.8886 81.3583 21.1235 81.2899 21.3765C81.2215 21.6295 81.2093 21.8944 81.2541 22.1526C81.2541 22.6293 81.4435 23.0866 81.7807 23.4237C82.1179 23.7608 82.5753 23.9502 83.0522 23.9502ZM88.2878 21.8882C88.6852 21.8882 89.0738 21.7704 89.4042 21.5497C89.7347 21.3289 89.9923 21.0151 90.1444 20.648C90.2965 20.2809 90.3363 19.877 90.2588 19.4872C90.1812 19.0975 89.9898 18.7395 89.7088 18.4586C89.4277 18.1776 89.0696 17.9862 88.6798 17.9087C88.29 17.8312 87.8859 17.871 87.5187 18.023C87.1515 18.1751 86.8376 18.4326 86.6168 18.763C86.396 19.0934 86.2781 19.4818 86.2781 19.8792C86.2781 20.412 86.4899 20.923 86.8667 21.2998C87.2436 21.6766 87.7548 21.8882 88.2878 21.8882ZM103.043 21.2009C102.777 21.1556 102.505 21.1687 102.245 21.2395C101.985 21.3102 101.743 21.4369 101.537 21.6106C101.331 21.7843 101.166 22.0008 101.052 22.2451C100.939 22.4894 100.88 22.7556 100.88 23.025C100.88 23.2943 100.939 23.5605 101.052 23.8048C101.166 24.0491 101.331 24.2656 101.537 24.4393C101.743 24.613 101.985 24.7397 102.245 24.8104C102.505 24.8812 102.777 24.8943 103.043 24.849C103.473 24.7754 103.864 24.552 104.146 24.2182C104.427 23.8843 104.582 23.4617 104.582 23.025C104.582 22.5882 104.427 22.1656 104.146 21.8318C103.864 21.4979 103.473 21.2745 103.043 21.2009ZM103.043 30.0303C102.892 30.0231 102.742 30.0465 102.601 30.0991C102.46 30.1517 102.332 30.2323 102.223 30.3361C102.114 30.44 102.028 30.5648 101.968 30.7031C101.909 30.8413 101.879 30.9902 101.879 31.1405C101.842 31.3103 101.844 31.4861 101.884 31.6551C101.924 31.8241 102.001 31.982 102.11 32.1172C102.219 32.2524 102.357 32.3615 102.514 32.4364C102.671 32.5113 102.842 32.5502 103.016 32.5502C103.19 32.5502 103.361 32.5113 103.518 32.4364C103.675 32.3615 103.813 32.2524 103.922 32.1172C104.031 31.982 104.108 31.8241 104.148 31.6551C104.188 31.4861 104.19 31.3103 104.153 31.1405C104.153 30.9947 104.124 30.8503 104.069 30.7156C104.013 30.5809 103.931 30.4585 103.828 30.3554C103.725 30.2523 103.602 30.1706 103.468 30.1148C103.333 30.059 103.188 30.0303 103.043 30.0303ZM94.0522 20.7251C94.4786 20.7147 94.8925 20.5788 95.2421 20.3344C95.5916 20.0899 95.8613 19.7479 96.0173 19.351C96.1733 18.9541 96.2088 18.52 96.1193 18.1031C96.0297 17.6861 95.8192 17.3048 95.5139 17.0069C95.2087 16.709 94.8223 16.5078 94.4032 16.4283C93.9841 16.3489 93.5509 16.3948 93.1578 16.5603C92.7647 16.7258 92.4291 17.0036 92.1931 17.3588C91.9571 17.714 91.8312 18.131 91.831 18.5574C91.8309 18.8466 91.8887 19.1329 92.001 19.3994C92.1133 19.6659 92.2777 19.9072 92.4847 20.1092C92.6917 20.3112 92.937 20.4698 93.2062 20.5755C93.4754 20.6813 93.763 20.7322 94.0522 20.7251ZM78.3983 25.9592C78.8331 25.9592 79.2501 25.7866 79.5576 25.4792C79.865 25.1718 80.0377 24.755 80.0377 24.3203C80.0377 23.8856 79.865 23.4687 79.5576 23.1613C79.2501 22.854 78.8331 22.6813 78.3983 22.6813C77.9635 22.6813 77.5465 22.854 77.2391 23.1613C76.9316 23.4687 76.7589 23.8856 76.7589 24.3203C76.7589 24.755 76.9316 25.1718 77.2391 25.4792C77.5465 25.7866 77.9635 25.9592 78.3983 25.9592ZM144.769 44.8339C144.134 44.781 143.499 45.7327 143.341 47.0016C143.182 48.2705 143.552 49.3807 144.187 49.4336C144.822 49.4865 145.456 48.5877 145.615 47.3188C145.773 46.0499 145.403 44.9396 144.769 44.8339ZM140.749 65.3475L140.009 62.3339L137.629 64.2901L138.317 67.3566L140.749 65.3475ZM134.562 60.7478C134.562 60.3923 134.456 60.0447 134.259 59.7491C134.061 59.4535 133.78 59.2231 133.452 59.0871C133.123 58.951 132.762 58.9154 132.413 58.9848C132.064 59.0541 131.744 59.2253 131.492 59.4767C131.241 59.7281 131.07 60.0484 131 60.3971C130.931 60.7458 130.966 61.1073 131.103 61.4357C131.239 61.7642 131.469 62.0449 131.765 62.2425C132.061 62.44 132.408 62.5454 132.764 62.5454C133.241 62.5454 133.698 62.356 134.035 62.0189C134.372 61.6818 134.562 61.2246 134.562 60.7478ZM132.764 65.9291C132.764 65.5736 132.658 65.226 132.461 64.9304C132.263 64.6348 131.982 64.4044 131.654 64.2683C131.325 64.1323 130.964 64.0967 130.615 64.166C130.266 64.2354 129.946 64.4066 129.694 64.658C129.443 64.9094 129.272 65.2297 129.202 65.5784C129.133 65.9271 129.168 66.2885 129.305 66.617C129.441 66.9455 129.671 67.2262 129.967 67.4237C130.262 67.6213 130.61 67.7267 130.966 67.7267C131.443 67.7267 131.9 67.5373 132.237 67.2002C132.574 66.8631 132.764 66.4058 132.764 65.9291ZM122.028 56.7297H121.023C118.696 56.7826 116.793 57.9986 116.581 59.7433C116.37 61.488 118.326 63.6557 121.129 63.9729C123.932 64.2901 126.312 63.0212 126.576 61.0122C126.841 59.0031 124.778 57.0998 122.028 56.7297ZM114.095 57.2055C114.095 56.85 113.99 56.5024 113.792 56.2068C113.595 55.9112 113.314 55.6808 112.986 55.5448C112.657 55.4087 112.295 55.3731 111.947 55.4425C111.598 55.5118 111.277 55.683 111.026 55.9344C110.775 56.1858 110.603 56.5061 110.534 56.8548C110.465 57.2035 110.5 57.565 110.636 57.8934C110.772 58.2219 111.003 58.5026 111.298 58.7002C111.594 58.8977 111.942 59.0031 112.297 59.0031C112.774 59.0031 113.232 58.8137 113.569 58.4766C113.906 58.1395 114.095 57.6823 114.095 57.2055ZM113.461 62.6511C113.461 62.4151 113.414 62.1813 113.324 61.9632C113.234 61.7451 113.101 61.547 112.934 61.3801C112.767 61.2131 112.569 61.0807 112.351 60.9904C112.133 60.9001 111.899 60.8536 111.663 60.8536C111.427 60.8536 111.193 60.9001 110.975 60.9904C110.757 61.0807 110.558 61.2131 110.391 61.3801C110.224 61.547 110.092 61.7451 110.002 61.9632C109.911 62.1813 109.865 62.4151 109.865 62.6511C109.865 62.8872 109.911 63.121 110.002 63.339C110.092 63.5571 110.224 63.7553 110.391 63.9222C110.558 64.0891 110.757 64.2216 110.975 64.3119C111.193 64.4022 111.427 64.4487 111.663 64.4487C111.899 64.4487 112.133 64.4022 112.351 64.3119C112.569 64.2216 112.767 64.0891 112.934 63.9222C113.101 63.7553 113.234 63.5571 113.324 63.339C113.414 63.121 113.461 62.8872 113.461 62.6511ZM105.845 58.7916L103.043 53.769L100.134 58.7916L103.043 63.3913L105.845 58.7916ZM101.456 42.772C101.469 43.1884 101.641 43.5842 101.935 43.8788C102.23 44.1735 102.626 44.3448 103.043 44.3581C103.454 44.3443 103.844 44.1712 104.13 43.8752C104.417 43.5792 104.576 43.1836 104.576 42.772C104.576 42.3653 104.415 41.9753 104.127 41.6878C103.839 41.4003 103.449 41.2387 103.043 41.2387C102.631 41.2385 102.235 41.3983 101.939 41.6844C101.643 41.9706 101.47 42.3605 101.456 42.772ZM95.956 57.2055C95.9423 56.724 95.7412 56.2668 95.3956 55.9311C95.0499 55.5954 94.587 55.4077 94.1051 55.4079C93.6282 55.4079 93.1709 55.5973 92.8336 55.9344C92.4964 56.2715 92.307 56.7288 92.307 57.2055C92.307 57.6823 92.4964 58.1395 92.8336 58.4766C93.1709 58.8137 93.6282 59.0031 94.1051 59.0031C94.587 59.0033 95.0499 58.8156 95.3956 58.4799C95.7412 58.1443 95.9423 57.6871 95.956 57.2055ZM95.956 62.5454C95.9423 62.0639 95.7412 61.6066 95.3956 61.271C95.0499 60.9353 94.587 60.7476 94.1051 60.7478C93.6282 60.7478 93.1709 60.9372 92.8336 61.2743C92.4964 61.6114 92.307 62.0687 92.307 62.5454C92.307 63.0222 92.4964 63.4794 92.8336 63.8165C93.1709 64.1536 93.6282 64.343 94.1051 64.343C94.587 64.3432 95.0499 64.1555 95.3956 63.8198C95.7412 63.4841 95.9423 63.027 95.956 62.5454ZM89.5041 59.6904C89.2926 57.9457 87.3887 56.7297 85.0618 56.6768H84.057C81.2541 57.0469 79.2445 58.9502 79.5089 60.9064C79.7733 62.8626 82.206 64.2372 84.956 63.8672C87.706 63.4971 89.7685 61.6995 89.5041 59.6904ZM76.9704 65.7705C77.0158 65.5049 77.0027 65.2327 76.9319 64.9728C76.8611 64.7129 76.7344 64.4715 76.5607 64.2656C76.3869 64.0597 76.1703 63.8942 75.9259 63.7807C75.6816 63.6672 75.4154 63.6084 75.1459 63.6084C74.8765 63.6084 74.6102 63.6672 74.3659 63.7807C74.1215 63.8942 73.9049 64.0597 73.7311 64.2656C73.5574 64.4715 73.4307 64.7129 73.3599 64.9728C73.2892 65.2327 73.276 65.5049 73.3214 65.7705C73.395 66.201 73.6185 66.5916 73.9524 66.8732C74.2863 67.1548 74.7091 67.3093 75.1459 67.3093C75.5828 67.3093 76.0055 67.1548 76.3394 66.8732C76.6733 66.5916 76.8969 66.201 76.9704 65.7705ZM73.3214 62.3868C73.8031 62.373 74.2604 62.172 74.5962 61.8265C74.9319 61.4809 75.1197 61.0181 75.1195 60.5363C75.1195 60.0596 74.93 59.6024 74.5928 59.2653C74.2556 58.9281 73.7983 58.7387 73.3214 58.7387C72.8445 58.7387 72.3872 58.9281 72.05 59.2653C71.7128 59.6024 71.5233 60.0596 71.5233 60.5363C71.5231 61.0181 71.7108 61.4809 72.0466 61.8265C72.3824 62.172 72.8397 62.373 73.3214 62.3868ZM68.456 64.2901L66.0233 62.3339L65.3358 65.3475L67.7685 67.3566L68.456 64.2901ZM62.7444 47.0016C62.5858 45.7327 61.9512 44.781 61.3166 44.8339C60.6819 44.8868 60.3118 45.997 60.4704 47.3188C60.6291 48.6405 61.2637 49.5393 61.8983 49.4336C62.5329 49.3279 62.9031 48.2705 62.7444 47.0016ZM146.038 43.988C146.778 44.6753 147.148 45.9442 146.99 47.4774C146.831 49.0106 145.615 50.8611 144.24 50.8611C143.629 52.1485 143.15 53.4949 142.812 54.8792C142.336 55.8838 140.696 59.6375 141.225 61.4351C141.754 63.2327 142.442 65.2418 142.547 65.6647C142.653 66.0877 142.547 65.7705 142.495 65.7705C142.442 65.7705 138.264 68.9427 137.312 71.269C136.73 71.9034 136.624 71.8505 135.408 71.1632C129.749 68.0439 117.374 65.8762 103.043 65.8762C88.7108 65.8762 76.3358 68.0439 70.6243 71.1632C69.4608 71.7977 69.3022 71.9034 68.8262 71.3218C67.8743 68.8369 63.5377 65.7705 63.5377 65.7705C63.5377 65.7705 64.2781 63.4971 64.9127 61.4351C65.5473 59.3732 63.2204 54.6149 63.2204 54.6149C62.8756 53.3176 62.3971 52.0596 61.7925 50.8611C60.4704 50.8611 59.3598 49.4336 59.0954 47.4774C58.831 45.5212 59.2541 44.6753 59.9944 43.988C59.379 42.298 58.8842 40.5666 58.5137 38.8067C60.6291 38.3309 62.5858 37.5907 65.8118 37.3263C64.2781 39.6526 63.855 41.6617 62.7444 43.7765C65.4416 41.7146 65.4416 41.7146 67.081 40.5514C68.2973 42.4019 69.4608 48.5877 69.5666 51.0197C67.8214 49.5393 66.7637 48.7992 65.9175 48.4819C65.0714 48.1647 64.331 47.7418 64.1194 47.9004V48.3762L64.4368 49.6451C66.182 55.4608 70.0425 56.8354 73.6916 56.8883C79.5089 56.9412 81.3599 51.7599 81.2012 49.5393C80.9368 46.4729 78.9801 45.9442 77.2877 46.1557C74.1147 46.4729 73.5858 49.5922 74.1147 52.5001C67.0281 48.852 70.2541 36.8505 79.6147 40.8158C78.3983 36.2689 78.2925 32.2508 80.3022 29.1315C82.7877 31.5635 85.6435 33.6783 84.6916 40.2871C86.4368 39.0182 87.9704 37.7493 89.557 38.1194C91.1435 38.4895 93.682 39.494 94.0522 42.8248C94.3166 45.1511 92.9416 47.4245 91.1435 48.852C90.932 46.5786 90.5089 44.5695 87.9176 44.4638C85.3262 44.3581 84.4272 46.843 84.5329 48.7463C84.6387 50.6496 88.2349 54.5091 92.8358 54.1919C97.4368 53.8747 101.403 49.9094 101.35 45.1511C99.8695 45.5212 98.0185 47.0544 97.1724 47.7418C96.3262 48.4291 96.4849 47.9004 96.3262 47.9004V37.9608C96.6301 37.9211 96.939 37.9574 97.2253 38.0665C98.5474 38.8596 100.081 41.3973 101.033 41.1859C100.293 38.278 98.3359 34.7357 98.3359 33.5726H107.749C107.696 34.7357 105.74 38.278 105.052 41.1859C105.951 41.3973 107.538 38.8596 108.86 38.0665C109.146 37.9574 109.455 37.9211 109.759 37.9608V47.9004C109.6 47.9004 109.019 47.9004 108.86 47.7418C108.701 47.5831 106.216 45.5212 104.735 45.1511C104.682 49.9094 108.648 53.8218 113.249 54.1919C117.85 54.562 121.446 51.4427 121.552 48.7463C121.658 46.0499 121.076 44.4109 118.168 44.4638C115.259 44.5167 115.153 46.5257 114.889 48.852C113.144 47.4245 111.769 45.1511 112.033 42.8248C112.403 39.494 114.36 38.5952 116.475 38.1194C118.591 37.6436 119.596 39.0182 121.394 40.2871C120.442 33.6783 123.297 31.5635 125.73 29.1315C127.74 32.2508 127.687 36.2689 126.418 40.8158C135.831 36.8505 139.057 48.852 131.918 52.5001C132.499 49.5922 131.971 46.4729 128.797 46.1557C127.105 45.9442 125.096 46.4729 124.884 49.5393C124.861 50.5241 125.041 51.5031 125.413 52.4155C125.784 53.3279 126.339 54.1543 127.043 54.8434C127.747 55.5324 128.586 56.0695 129.506 56.4213C130.426 56.7731 131.409 56.932 132.394 56.8883C135.99 56.8354 139.903 55.4608 141.648 49.6451L141.966 48.3762C141.966 48.2176 141.913 48.059 141.913 47.9004C141.913 47.7418 141.225 48.0061 140.115 48.4819C139.004 48.9578 138.317 49.4336 136.466 51.0197C136.624 48.5877 137.788 42.4019 139.004 40.5514C140.644 41.7146 140.749 42.4547 143.288 43.7765C142.177 41.6617 141.807 39.7055 140.221 37.3263C143.447 37.5907 145.403 38.3309 147.572 38.8067C147.184 40.5681 146.672 42.2996 146.038 43.988ZM125.624 69.63C118.183 68.2059 110.619 67.5153 103.043 67.5681C95.4657 67.5088 87.9016 68.1994 80.4608 69.63C73.7974 70.9518 71.3647 72.3264 71.3647 72.908C71.3647 73.4895 73.5858 74.5998 80.4608 75.8158C87.9199 77.0885 95.4758 77.7077 103.043 77.6663C110.609 77.7077 118.165 77.0885 125.624 75.8158C132.499 74.5998 134.721 73.3309 134.721 72.908C134.721 72.485 132.235 70.9518 125.624 69.63ZM73.6916 28.7614C74.0054 28.7614 74.3121 28.6683 74.573 28.4941C74.8339 28.3198 75.0373 28.0721 75.1574 27.7822C75.2774 27.4924 75.3089 27.1735 75.2476 26.8658C75.1864 26.5582 75.0353 26.2755 74.8134 26.0537C74.5916 25.8319 74.3089 25.6808 74.0011 25.6196C73.6933 25.5584 73.3743 25.5898 73.0844 25.7099C72.7945 25.8299 72.5468 26.0332 72.3724 26.2941C72.1981 26.5549 72.105 26.8616 72.105 27.1753C72.105 27.5959 72.2722 27.9994 72.5697 28.2968C72.8673 28.5943 73.2708 28.7614 73.6916 28.7614ZM66.0762 34.3656C66.246 34.4024 66.4218 34.4008 66.5909 34.3607C66.7599 34.3207 66.9179 34.2434 67.0531 34.1343C67.1884 34.0253 67.2975 33.8874 67.3724 33.7307C67.4474 33.5741 67.4863 33.4026 67.4863 33.2289C67.4863 33.0552 67.4474 32.8837 67.3724 32.7271C67.2975 32.5704 67.1884 32.4325 67.0531 32.3234C66.9179 32.2144 66.7599 32.1371 66.5909 32.097C66.4218 32.057 66.246 32.0554 66.0762 32.0922C65.8165 32.1485 65.5839 32.292 65.4171 32.4988C65.2503 32.7056 65.1594 32.9632 65.1594 33.2289C65.1594 33.4945 65.2503 33.7522 65.4171 33.959C65.5839 34.1658 65.8165 34.3093 66.0762 34.3656ZM69.5137 31.5635C69.8388 31.5001 70.1317 31.3256 70.3423 31.07C70.5529 30.8144 70.6681 30.4936 70.6681 30.1624C70.6681 29.8313 70.5529 29.5104 70.3423 29.2548C70.1317 28.9993 69.8388 28.8248 69.5137 28.7614C69.3069 28.721 69.0937 28.7269 68.8895 28.7787C68.6852 28.8304 68.495 28.9267 68.3323 29.0606C68.1697 29.1945 68.0387 29.3628 67.9488 29.5533C67.8589 29.7438 67.8123 29.9518 67.8123 30.1624C67.8123 30.3731 67.8589 30.5811 67.9488 30.7716C68.0387 30.9621 68.1697 31.1303 68.3323 31.2643C68.495 31.3982 68.6852 31.4945 68.8895 31.5462C69.0937 31.5979 69.3069 31.6038 69.5137 31.5635ZM68.7204 36.7448C70.0425 35.3173 73.7445 32.3565 78.7156 29.6073C83.9364 26.6206 89.6209 24.5297 95.533 23.4215C96.8336 26.1157 97.7419 28.9821 98.2301 31.9336H100.293C99.6986 28.4286 98.6496 25.0161 97.1724 21.7825L96.8551 21.0423L96.0618 21.1481C89.1868 22.2055 82.7877 24.9018 77.6579 27.7568C72.5281 30.6118 68.8262 33.5197 67.1339 35.3173L68.7204 36.7448ZM103.043 25.8535C102.727 25.843 102.415 25.927 102.147 26.0947C101.879 26.2625 101.668 26.5064 101.54 26.7951C101.411 27.0838 101.372 27.4043 101.427 27.7154C101.483 28.0264 101.629 28.314 101.849 28.5411C102.069 28.7682 102.351 28.9246 102.66 28.9903C102.969 29.0559 103.291 29.0277 103.584 28.9094C103.877 28.791 104.128 28.5879 104.305 28.3261C104.482 28.0642 104.576 27.7555 104.576 27.4396C104.576 27.028 104.417 26.6323 104.13 26.3364C103.844 26.0404 103.454 25.8672 103.043 25.8535ZM123.033 23.9502C123.506 23.9369 123.955 23.7432 124.29 23.4089C124.624 23.0747 124.818 22.6251 124.831 22.1526C124.831 21.9165 124.785 21.6828 124.694 21.4647C124.604 21.2466 124.471 21.0484 124.304 20.8815C124.137 20.7146 123.939 20.5822 123.721 20.4918C123.503 20.4015 123.269 20.355 123.033 20.355C122.556 20.355 122.099 20.5444 121.762 20.8815C121.424 21.2186 121.235 21.6758 121.235 22.1526C121.235 22.6293 121.424 23.0866 121.762 23.4237C122.099 23.7608 122.556 23.9502 123.033 23.9502ZM127.634 25.9592C127.958 25.9592 128.275 25.8631 128.545 25.683C128.814 25.5029 129.025 25.247 129.149 24.9475C129.273 24.648 129.305 24.3185 129.242 24.0005C129.179 23.6826 129.023 23.3906 128.793 23.1613C128.564 22.9321 128.272 22.776 127.954 22.7128C127.636 22.6495 127.306 22.682 127.007 22.8061C126.707 22.9301 126.451 23.1402 126.271 23.4097C126.091 23.6792 125.995 23.9961 125.995 24.3203C125.995 24.755 126.167 25.1718 126.475 25.4792C126.782 25.7866 127.199 25.9592 127.634 25.9592ZM136.571 31.5635C136.897 31.5001 137.19 31.3256 137.4 31.07C137.611 30.8144 137.726 30.4936 137.726 30.1624C137.726 29.8313 137.611 29.5104 137.4 29.2548C137.19 28.9993 136.897 28.8248 136.571 28.7614C136.365 28.721 136.152 28.7269 135.947 28.7787C135.743 28.8304 135.553 28.9267 135.39 29.0606C135.228 29.1945 135.097 29.3628 135.007 29.5533C134.917 29.7438 134.87 29.9518 134.87 30.1624C134.87 30.3731 134.917 30.5811 135.007 30.7716C135.097 30.9621 135.228 31.1303 135.39 31.2643C135.553 31.3982 135.743 31.4945 135.947 31.5462C136.152 31.5979 136.365 31.6038 136.571 31.5635ZM132.341 28.7614C132.57 28.8037 132.805 28.7951 133.03 28.7363C133.255 28.6774 133.465 28.5698 133.644 28.4209C133.823 28.2721 133.967 28.0857 134.066 27.875C134.164 27.6643 134.216 27.4344 134.216 27.2017C134.216 26.969 134.164 26.7391 134.066 26.5284C133.967 26.3177 133.823 26.1313 133.644 25.9825C133.465 25.8336 133.255 25.7259 133.03 25.6671C132.805 25.6083 132.57 25.5997 132.341 25.642C131.976 25.7094 131.647 25.9023 131.41 26.1872C131.172 26.4721 131.043 26.8311 131.043 27.2017C131.043 27.5723 131.172 27.9313 131.41 28.2162C131.647 28.5011 131.976 28.694 132.341 28.7614ZM117.797 21.8882C118.195 21.8882 118.583 21.7704 118.914 21.5497C119.244 21.3289 119.502 21.0151 119.654 20.648C119.806 20.2809 119.846 19.877 119.768 19.4872C119.691 19.0975 119.499 18.7395 119.218 18.4586C118.937 18.1776 118.579 17.9862 118.189 17.9087C117.8 17.8312 117.396 17.871 117.028 18.023C116.661 18.1751 116.347 18.4326 116.126 18.763C115.906 19.0934 115.788 19.4818 115.788 19.8792C115.788 20.143 115.84 20.4043 115.941 20.648C116.042 20.8918 116.19 21.1132 116.376 21.2998C116.563 21.4864 116.785 21.6343 117.028 21.7353C117.272 21.8363 117.534 21.8882 117.797 21.8882ZM112.033 20.7251C112.608 20.7251 113.16 20.4967 113.566 20.0902C113.973 19.6837 114.201 19.1323 114.201 18.5574C114.201 17.9825 113.973 17.4312 113.566 17.0246C113.16 16.6181 112.608 16.3897 112.033 16.3897C111.458 16.3897 110.906 16.6181 110.5 17.0246C110.093 17.4312 109.865 17.9825 109.865 18.5574C109.865 19.1323 110.093 19.6837 110.5 20.0902C110.906 20.4967 111.458 20.7251 112.033 20.7251ZM102.355 12.0015C101.698 12.1529 101.096 12.486 100.619 12.9628C100.143 13.4396 99.8094 14.0408 99.658 14.6979H102.355V12.0015ZM106.374 14.6979C106.233 14.0449 105.909 13.4452 105.442 12.9681C104.974 12.491 104.38 12.1559 103.73 12.0015V14.6979H106.374ZM99.658 16.0725C99.8261 16.8469 100.253 17.541 100.868 18.0406C101.483 18.5403 102.25 18.8158 103.043 18.8218C103.829 18.8135 104.588 18.536 105.194 18.0358C105.801 17.5355 106.217 16.8426 106.374 16.0725H99.658ZM102.302 10.6269V7.34895L98.9705 9.30515H98.3359V3.5423H98.9705L102.302 5.70998V4.38822L100.24 0.845923V0H106.057V0.845923L103.942 4.38822V6.23868L107.273 4.071H107.908V9.51663H107.273L103.942 7.6133V10.6798C104.84 10.8505 105.671 11.2735 106.337 11.8992C107.004 12.5249 107.478 13.3274 107.705 14.2129C107.931 15.0983 107.901 16.03 107.618 16.8989C107.334 17.7678 106.809 18.5379 106.103 19.1192C105.398 19.7004 104.541 20.0687 103.634 20.181C102.726 20.2933 101.806 20.1448 100.98 19.7531C100.154 19.3613 99.4565 18.7425 98.9696 17.9689C98.4826 17.1954 98.2261 16.2992 98.2301 15.3852C98.2397 14.2397 98.6534 13.1343 99.3983 12.2638C100.143 11.3933 101.172 10.8136 102.302 10.6269ZM139.956 34.3656C140.107 34.3658 140.255 34.3354 140.394 34.2763C140.532 34.2173 140.657 34.1307 140.761 34.0219C140.865 33.9132 140.945 33.7845 140.998 33.6436C141.05 33.5027 141.074 33.3526 141.067 33.2025C141.067 32.908 140.95 32.6256 140.741 32.4174C140.533 32.2092 140.251 32.0922 139.956 32.0922C139.786 32.0554 139.61 32.057 139.441 32.097C139.272 32.1371 139.114 32.2144 138.979 32.3234C138.844 32.4325 138.735 32.5704 138.66 32.7271C138.585 32.8837 138.546 33.0552 138.546 33.2289C138.546 33.4026 138.585 33.5741 138.66 33.7307C138.735 33.8874 138.844 34.0253 138.979 34.1343C139.114 34.2434 139.272 34.3207 139.441 34.3607C139.61 34.4008 139.786 34.4024 139.956 34.3656ZM105.74 31.9336C106.359 28.4347 107.407 25.0254 108.86 21.7825L109.177 21.0423L109.97 21.1481C116.846 22.2055 123.297 24.9018 128.374 27.7568C133.451 30.6118 137.259 33.5197 138.898 35.3173L137.365 36.7448C135.99 35.3173 132.288 32.3565 127.37 29.6073C122.451 26.858 116.687 24.4789 110.499 23.4215C109.223 26.1254 108.316 28.9884 107.802 31.9336H105.74Z" fill="#0C4C8A"/>
</svg>
